<?xml version="1.0" encoding="UTF-8" standalone="no"?>
<!DOCTYPE svg PUBLIC "-//W3C//DTD SVG 1.1//EN" "http://www.w3.org/Graphics/SVG/1.1/DTD/svg11.dtd">
<!-- Generated by graphviz version 2.40.1 (20161225.0304)
 -->
<!-- Title: ER Pages: 1 -->
<svg width="1227pt" height="479pt" viewBox="0.00 0.00 1227.15 478.80" xmlns="http://www.w3.org/2000/svg" xmlns:xlink="http://www.w3.org/1999/xlink">
<g id="graph0" class="graph" transform="scale(1 1) rotate(0) translate(4 474.8)">
<title>ER</title>
<text text-anchor="middle" x="609.5738" y="-7.6" font-family="Helvetica,Arial,sans-serif" font-size="12.00" fill="#000000">Baseball League ERD</text>
<!-- personnel -->
<g id="node1" class="node">
<title>personnel</title>
<polygon fill="#d3d3d3" stroke="#000000" points="496.5138,-397.8 417.4802,-397.8 417.4802,-361.8 496.5138,-361.8 496.5138,-397.8"/>
<text text-anchor="middle" x="456.997" y="-375.6" font-family="Helvetica,Arial,sans-serif" font-size="14.00" fill="#000000">Personnel</text>
</g>
<!-- players -->
<g id="node2" class="node">
<title>players</title>
<polygon fill="#d3d3d3" stroke="#000000" points="307.1668,-309 244.8271,-309 244.8271,-273 307.1668,-273 307.1668,-309"/>
<text text-anchor="middle" x="275.997" y="-286.8" font-family="Helvetica,Arial,sans-serif" font-size="14.00" fill="#000000">Players</text>
</g>
<!-- personnel&#45;&gt;players -->
<g id="edge32" class="edge">
<title>personnel-&gt;players</title>
<path fill="none" stroke="#ff0000" d="M417.0808,-367.5827C398.6601,-361.3719 376.7441,-353.1569 357.8848,-343.8 337.8826,-333.8761 316.7362,-320.1484 300.9436,-309.1779"/>
<text text-anchor="middle" x="377.0531" y="-331.2" font-family="Helvetica,Arial,sans-serif" font-size="14.00" fill="#ff0000">inherit</text>
</g>
<!-- pitchers -->
<g id="node3" class="node">
<title>pitchers</title>
<polygon fill="#d3d3d3" stroke="#000000" points="663.058,-309 596.9359,-309 596.9359,-273 663.058,-273 663.058,-309"/>
<text text-anchor="middle" x="629.997" y="-286.8" font-family="Helvetica,Arial,sans-serif" font-size="14.00" fill="#000000">Pitchers</text>
</g>
<!-- personnel&#45;&gt;pitchers -->
<g id="edge33" class="edge">
<title>personnel-&gt;pitchers</title>
<path fill="none" stroke="#ff0000" d="M496.8803,-368.0034C514.8802,-361.9298 536.0757,-353.7073 553.997,-343.8 564.7293,-337.8669 565.9101,-334.1337 575.8848,-327 584.2367,-321.0269 593.4884,-314.7514 601.9449,-309.1432"/>
<text text-anchor="middle" x="595.0531" y="-331.2" font-family="Helvetica,Arial,sans-serif" font-size="14.00" fill="#ff0000">inherit</text>
</g>
<!-- coaches -->
<g id="node4" class="node">
<title>coaches</title>
<polygon fill="#d3d3d3" stroke="#000000" points="492.7344,-309 421.2596,-309 421.2596,-273 492.7344,-273 492.7344,-309"/>
<text text-anchor="middle" x="456.997" y="-286.8" font-family="Helvetica,Arial,sans-serif" font-size="14.00" fill="#000000">Coaches</text>
</g>
<!-- personnel&#45;&gt;coaches -->
<g id="edge34" class="edge">
<title>personnel-&gt;coaches</title>
<path fill="none" stroke="#ff0000" d="M456.997,-361.4006C456.997,-346.0587 456.997,-324.322 456.997,-309.072"/>
<text text-anchor="middle" x="476.0531" y="-331.2" font-family="Helvetica,Arial,sans-serif" font-size="14.00" fill="#ff0000">inherit</text>
</g>
<!-- managers -->
<g id="node5" class="node">
<title>managers</title>
<polygon fill="#d3d3d3" stroke="#000000" points="403.2315,-309 324.7624,-309 324.7624,-273 403.2315,-273 403.2315,-309"/>
<text text-anchor="middle" x="363.997" y="-286.8" font-family="Helvetica,Arial,sans-serif" font-size="14.00" fill="#000000">Managers</text>
</g>
<!-- personnel&#45;&gt;managers -->
<g id="edge35" class="edge">
<title>personnel-&gt;managers</title>
<path fill="none" stroke="#ff0000" d="M434.7879,-361.5075C428.2613,-355.9476 421.1858,-349.7359 414.8848,-343.8 403.0235,-332.6259 390.3015,-319.4259 380.5449,-309.0194"/>
<text text-anchor="middle" x="434.0531" y="-331.2" font-family="Helvetica,Arial,sans-serif" font-size="14.00" fill="#ff0000">inherit</text>
</g>
<!-- umpires -->
<g id="node6" class="node">
<title>umpires</title>
<polygon fill="#d3d3d3" stroke="#000000" points="579.0966,-309 510.8973,-309 510.8973,-273 579.0966,-273 579.0966,-309"/>
<text text-anchor="middle" x="544.997" y="-286.8" font-family="Helvetica,Arial,sans-serif" font-size="14.00" fill="#000000">Umpires</text>
</g>
<!-- personnel&#45;&gt;umpires -->
<g id="edge36" class="edge">
<title>personnel-&gt;umpires</title>
<path fill="none" stroke="#ff0000" d="M477.1165,-361.7769C483.2696,-356.1195 489.9946,-349.7864 495.997,-343.8 507.154,-332.6727 519.1985,-319.7082 528.5541,-309.4104"/>
<text text-anchor="middle" x="531.0531" y="-331.2" font-family="Helvetica,Arial,sans-serif" font-size="14.00" fill="#ff0000">inherit</text>
</g>
<!-- recorded_hits -->
<g id="node10" class="node">
<title>recorded_hits</title>
<polygon fill="#d3d3d3" stroke="#000000" points="284.997,-131.4 182.777,-113.4 284.997,-95.4 387.217,-113.4 284.997,-131.4"/>
<text text-anchor="middle" x="284.997" y="-109.2" font-family="Helvetica,Arial,sans-serif" font-size="14.00" fill="#000000">Recorded Hits</text>
</g>
<!-- players&#45;&gt;recorded_hits -->
<g id="edge30" class="edge">
<title>players-&gt;recorded_hits</title>
<path fill="none" stroke="#000000" d="M276.9095,-272.9934C278.6345,-238.9537 282.3552,-165.5307 284.0821,-131.4543"/>
<text text-anchor="middle" x="287.8273" y="-198" font-family="Helvetica,Arial,sans-serif" font-size="14.00" fill="#000000">m</text>
</g>
<!-- team_member -->
<g id="node13" class="node">
<title>team_member</title>
<polygon fill="#d3d3d3" stroke="#000000" points="455.997,-220.2 351.7428,-202.2 455.997,-184.2 560.2511,-202.2 455.997,-220.2"/>
<text text-anchor="middle" x="455.997" y="-198" font-family="Helvetica,Arial,sans-serif" font-size="14.00" fill="#000000">Team Member</text>
</g>
<!-- players&#45;&gt;team_member -->
<g id="edge40" class="edge">
<title>players-&gt;team_member</title>
<path fill="none" stroke="#000000" d="M307.3506,-275.5322C341.6978,-258.5876 396.2295,-231.6853 428.8238,-215.6054"/>
<text text-anchor="middle" x="388.8273" y="-242.4" font-family="Helvetica,Arial,sans-serif" font-size="14.00" fill="#000000">m</text>
</g>
<!-- play_pitcher -->
<g id="node9" class="node">
<title>play_pitcher</title>
<polygon fill="#d3d3d3" stroke="#000000" points="854.997,-131.4 754.2843,-113.4 854.997,-95.4 955.7097,-113.4 854.997,-131.4"/>
<text text-anchor="middle" x="854.997" y="-109.2" font-family="Helvetica,Arial,sans-serif" font-size="14.00" fill="#000000">Pitcher Status</text>
</g>
<!-- pitchers&#45;&gt;play_pitcher -->
<g id="edge29" class="edge">
<title>pitchers-&gt;play_pitcher</title>
<path fill="none" stroke="#000000" d="M652.8094,-272.9934C697.3864,-237.8073 795.2752,-160.5404 836.3126,-128.1482"/>
<text text-anchor="middle" x="767.8883" y="-198" font-family="Helvetica,Arial,sans-serif" font-size="14.00" fill="#000000">n</text>
</g>
<!-- pitchers&#45;&gt;team_member -->
<g id="edge41" class="edge">
<title>pitchers-&gt;team_member</title>
<path fill="none" stroke="#000000" d="M596.8917,-275.0802C584.17,-268.8947 569.5379,-261.6975 556.3364,-255 530.7065,-241.9972 501.6747,-226.6522 481.4575,-215.8658"/>
<text text-anchor="middle" x="562.8273" y="-242.4" font-family="Helvetica,Arial,sans-serif" font-size="14.00" fill="#000000">m</text>
</g>
<!-- coaches&#45;&gt;team_member -->
<g id="edge38" class="edge">
<title>coaches-&gt;team_member</title>
<path fill="none" stroke="#000000" d="M456.7898,-272.6006C456.617,-257.2587 456.3722,-235.522 456.2005,-220.272"/>
<text text-anchor="middle" x="462.8273" y="-242.4" font-family="Helvetica,Arial,sans-serif" font-size="14.00" fill="#000000">m</text>
</g>
<!-- managers&#45;&gt;team_member -->
<g id="edge39" class="edge">
<title>managers-&gt;team_member</title>
<path fill="none" stroke="#000000" d="M383.0594,-272.6006C399.9015,-256.3443 424.1822,-232.9081 440.0243,-217.6171"/>
<text text-anchor="middle" x="424.8273" y="-242.4" font-family="Helvetica,Arial,sans-serif" font-size="14.00" fill="#000000">m</text>
</g>
<!-- games -->
<g id="node8" class="node">
<title>games</title>
<polygon fill="#d3d3d3" stroke="#000000" points="639.6135,-220.2 578.3805,-220.2 578.3805,-184.2 639.6135,-184.2 639.6135,-220.2"/>
<text text-anchor="middle" x="608.997" y="-198" font-family="Helvetica,Arial,sans-serif" font-size="14.00" fill="#000000">Games</text>
</g>
<!-- umpires&#45;&gt;games -->
<g id="edge42" class="edge">
<title>umpires-&gt;games</title>
<path fill="none" stroke="#000000" d="M558.2578,-272.6006C569.315,-257.2587 584.9811,-235.522 595.9721,-220.272"/>
<text text-anchor="middle" x="586.8883" y="-242.4" font-family="Helvetica,Arial,sans-serif" font-size="14.00" fill="#000000">n</text>
</g>
<!-- teams -->
<g id="node7" class="node">
<title>teams</title>
<polygon fill="#d3d3d3" stroke="#000000" points="953.2758,-309 894.7182,-309 894.7182,-273 953.2758,-273 953.2758,-309"/>
<text text-anchor="middle" x="923.997" y="-286.8" font-family="Helvetica,Arial,sans-serif" font-size="14.00" fill="#000000">Teams</text>
</g>
<!-- teams&#45;&gt;team_member -->
<g id="edge37" class="edge">
<title>teams-&gt;team_member</title>
<path fill="none" stroke="#000000" d="M894.3664,-285.3778C816.1044,-270.5281 603.2198,-230.1346 505.8313,-211.6557"/>
<text text-anchor="middle" x="734.8883" y="-242.4" font-family="Helvetica,Arial,sans-serif" font-size="14.00" fill="#000000">n</text>
</g>
<!-- team_name -->
<g id="node21" class="node">
<title>team_name</title>
<ellipse fill="#d3d3d3" stroke="#000000" cx="1154.997" cy="-202.2" rx="64.3017" ry="18"/>
<text text-anchor="start" x="1116.4963" y="-199" font-family="Helvetica,Arial,sans-serif" text-decoration="underline" font-size="14.00" fill="#000000">Team Name</text>
</g>
<!-- teams&#45;&gt;team_name -->
<g id="edge8" class="edge">
<title>teams-&gt;team_name</title>
<path fill="none" stroke="#000000" d="M953.7233,-279.5727C995.3975,-263.5525 1071.2023,-234.412 1116.9471,-216.827"/>
</g>
<!-- city -->
<g id="node22" class="node">
<title>city</title>
<ellipse fill="#d3d3d3" stroke="#000000" cx="833.997" cy="-202.2" rx="27.8267" ry="18"/>
<text text-anchor="middle" x="833.997" y="-198" font-family="Helvetica,Arial,sans-serif" font-size="14.00" fill="#000000">City</text>
</g>
<!-- teams&#45;&gt;city -->
<g id="edge9" class="edge">
<title>teams-&gt;city</title>
<path fill="none" stroke="#000000" d="M905.3489,-272.6006C888.77,-256.2427 864.8229,-232.6149 849.3328,-217.3313"/>
</g>
<!-- division -->
<g id="node23" class="node">
<title>division</title>
<ellipse fill="#d3d3d3" stroke="#000000" cx="923.997" cy="-202.2" rx="44.6607" ry="18"/>
<text text-anchor="middle" x="923.997" y="-198" font-family="Helvetica,Arial,sans-serif" font-size="14.00" fill="#000000">Division</text>
</g>
<!-- teams&#45;&gt;division -->
<g id="edge10" class="edge">
<title>teams-&gt;division</title>
<path fill="none" stroke="#000000" d="M923.997,-272.6006C923.997,-257.2587 923.997,-235.522 923.997,-220.272"/>
</g>
<!-- league -->
<g id="node24" class="node">
<title>league</title>
<ellipse fill="#d3d3d3" stroke="#000000" cx="1029.997" cy="-202.2" rx="43.494" ry="18"/>
<text text-anchor="middle" x="1029.997" y="-198" font-family="Helvetica,Arial,sans-serif" font-size="14.00" fill="#000000">League</text>
</g>
<!-- teams&#45;&gt;league -->
<g id="edge11" class="edge">
<title>teams-&gt;league</title>
<path fill="none" stroke="#000000" d="M945.7034,-272.8157C964.7223,-256.8829 992.1173,-233.9331 1010.4614,-218.5657"/>
</g>
<!-- games&#45;&gt;play_pitcher -->
<g id="edge28" class="edge">
<title>games-&gt;play_pitcher</title>
<path fill="none" stroke="#000000" d="M639.6557,-191.133C686.023,-174.3955 773.6477,-142.7651 821.5883,-125.4597"/>
<text text-anchor="middle" x="757.8883" y="-153.6" font-family="Helvetica,Arial,sans-serif" font-size="14.00" fill="#000000">1</text>
</g>
<!-- games&#45;&gt;recorded_hits -->
<g id="edge31" class="edge">
<title>games-&gt;recorded_hits</title>
<path fill="none" stroke="#000000" d="M578.2111,-187.684C575.1278,-186.4306 572.02,-185.2444 568.997,-184.2 537.5013,-173.3186 528.5521,-174.2406 496.2144,-166.2 437.7079,-151.6526 370.114,-134.7364 327.468,-124.0502"/>
<text text-anchor="middle" x="500.8883" y="-153.6" font-family="Helvetica,Arial,sans-serif" font-size="14.00" fill="#000000">n</text>
</g>
<!-- date -->
<g id="node25" class="node">
<title>date</title>
<ellipse fill="#d3d3d3" stroke="#000000" cx="435.997" cy="-113.4" rx="29.6511" ry="18"/>
<text text-anchor="start" x="422.3778" y="-110.2" font-family="Helvetica,Arial,sans-serif" text-decoration="underline" font-size="14.00" fill="#000000">date</text>
</g>
<!-- games&#45;&gt;date -->
<g id="edge12" class="edge">
<title>games-&gt;date</title>
<path fill="none" stroke="#000000" d="M578.068,-186.3243C543.8574,-168.7642 489.5356,-140.8811 458.9254,-125.169"/>
</g>
<!-- home -->
<g id="node34" class="node">
<title>home</title>
<ellipse fill="#d3d3d3" stroke="#000000" cx="518.997" cy="-113.4" rx="35.3703" ry="18"/>
<text text-anchor="middle" x="518.997" y="-109.2" font-family="Helvetica,Arial,sans-serif" font-size="14.00" fill="#000000">home</text>
</g>
<!-- games&#45;&gt;home -->
<g id="edge13" class="edge">
<title>games-&gt;home</title>
<path fill="none" stroke="#000000" d="M590.3489,-183.8006C574.0789,-167.7475 550.7128,-144.6929 535.2074,-129.3943"/>
</g>
<!-- score -->
<g id="node35" class="node">
<title>score</title>
<ellipse fill="#d3d3d3" stroke="#000000" cx="606.997" cy="-113.4" rx="34.7903" ry="18"/>
<text text-anchor="middle" x="606.997" y="-109.2" font-family="Helvetica,Arial,sans-serif" font-size="14.00" fill="#000000">score</text>
</g>
<!-- games&#45;&gt;score -->
<g id="edge14" class="edge">
<title>games-&gt;score</title>
<path fill="none" stroke="#000000" d="M608.5826,-183.8006C608.237,-168.4587 607.7475,-146.722 607.404,-131.472"/>
</g>
<!-- visting -->
<g id="node36" class="node">
<title>visting</title>
<ellipse fill="#d3d3d3" stroke="#000000" cx="697.997" cy="-113.4" rx="38.2992" ry="18"/>
<text text-anchor="middle" x="697.997" y="-109.2" font-family="Helvetica,Arial,sans-serif" font-size="14.00" fill="#000000">visting</text>
</g>
<!-- games&#45;&gt;visting -->
<g id="edge15" class="edge">
<title>games-&gt;visting</title>
<path fill="none" stroke="#000000" d="M627.4378,-183.8006C643.3234,-167.9507 666.0497,-145.2755 681.3807,-129.9789"/>
</g>
<!-- win -->
<g id="node30" class="node">
<title>win</title>
<ellipse fill="#d3d3d3" stroke="#000000" cx="854.997" cy="-40.4" rx="27" ry="18"/>
<text text-anchor="middle" x="854.997" y="-36.2" font-family="Helvetica,Arial,sans-serif" font-size="14.00" fill="#000000">win</text>
</g>
<!-- play_pitcher&#45;&gt;win -->
<g id="edge16" class="edge">
<title>play_pitcher-&gt;win</title>
<path fill="none" stroke="#000000" d="M854.997,-95.3551C854.997,-84.1241 854.997,-69.7298 854.997,-58.4904"/>
</g>
<!-- loss -->
<g id="node31" class="node">
<title>loss</title>
<ellipse fill="#d3d3d3" stroke="#000000" cx="927.997" cy="-40.4" rx="28.4107" ry="18"/>
<text text-anchor="middle" x="927.997" y="-36.2" font-family="Helvetica,Arial,sans-serif" font-size="14.00" fill="#000000">loss</text>
</g>
<!-- play_pitcher&#45;&gt;loss -->
<g id="edge17" class="edge">
<title>play_pitcher-&gt;loss</title>
<path fill="none" stroke="#000000" d="M870.4784,-97.9186C882.8667,-85.5302 900.1554,-68.2416 912.5379,-55.8591"/>
</g>
<!-- save -->
<g id="node32" class="node">
<title>save</title>
<ellipse fill="#d3d3d3" stroke="#000000" cx="778.997" cy="-40.4" rx="31.3602" ry="18"/>
<text text-anchor="middle" x="778.997" y="-36.2" font-family="Helvetica,Arial,sans-serif" font-size="14.00" fill="#000000">save</text>
</g>
<!-- play_pitcher&#45;&gt;save -->
<g id="edge18" class="edge">
<title>play_pitcher-&gt;save</title>
<path fill="none" stroke="#000000" d="M838.8793,-97.9186C826.069,-85.6139 808.2257,-68.475 795.3534,-56.1108"/>
</g>
<!-- singles -->
<g id="node26" class="node">
<title>singles</title>
<ellipse fill="#d3d3d3" stroke="#000000" cx="346.997" cy="-40.4" rx="42.8926" ry="18"/>
<text text-anchor="middle" x="346.997" y="-36.2" font-family="Helvetica,Arial,sans-serif" font-size="14.00" fill="#000000">Singles</text>
</g>
<!-- recorded_hits&#45;&gt;singles -->
<g id="edge24" class="edge">
<title>recorded_hits-&gt;singles</title>
<path fill="none" stroke="#000000" d="M298.4501,-97.5601C308.4934,-85.7349 322.2005,-69.5958 332.4889,-57.4821"/>
</g>
<!-- doubles -->
<g id="node27" class="node">
<title>doubles</title>
<ellipse fill="#d3d3d3" stroke="#000000" cx="453.997" cy="-40.4" rx="46.4048" ry="18"/>
<text text-anchor="middle" x="453.997" y="-36.2" font-family="Helvetica,Arial,sans-serif" font-size="14.00" fill="#000000">Doubles</text>
</g>
<!-- recorded_hits&#45;&gt;doubles -->
<g id="edge25" class="edge">
<title>recorded_hits-&gt;doubles</title>
<path fill="none" stroke="#000000" d="M314.8218,-100.5171C345.1446,-87.4191 391.9292,-67.2103 422.7535,-53.8957"/>
</g>
<!-- triples -->
<g id="node28" class="node">
<title>triples</title>
<ellipse fill="#d3d3d3" stroke="#000000" cx="103.997" cy="-40.4" rx="40.0031" ry="18"/>
<text text-anchor="middle" x="103.997" y="-36.2" font-family="Helvetica,Arial,sans-serif" font-size="14.00" fill="#000000">Triples</text>
</g>
<!-- recorded_hits&#45;&gt;triples -->
<g id="edge26" class="edge">
<title>recorded_hits-&gt;triples</title>
<path fill="none" stroke="#000000" d="M253.882,-100.8509C220.2239,-87.276 166.9451,-65.7879 133.8054,-52.4222"/>
</g>
<!-- home_runs -->
<g id="node29" class="node">
<title>home_runs</title>
<ellipse fill="#d3d3d3" stroke="#000000" cx="223.997" cy="-40.4" rx="62.0156" ry="18"/>
<text text-anchor="middle" x="223.997" y="-36.2" font-family="Helvetica,Arial,sans-serif" font-size="14.00" fill="#000000">Home Runs</text>
</g>
<!-- recorded_hits&#45;&gt;home_runs -->
<g id="edge27" class="edge">
<title>recorded_hits-&gt;home_runs</title>
<path fill="none" stroke="#000000" d="M271.7609,-97.5601C262.0197,-85.9026 248.7753,-70.0528 238.7038,-58"/>
</g>
<!-- home_team -->
<g id="node11" class="node">
<title>home_team</title>
<polygon fill="#d3d3d3" stroke="#000000" points="724.997,-397.8 634.0509,-379.8 724.997,-361.8 815.943,-379.8 724.997,-397.8"/>
<text text-anchor="middle" x="724.997" y="-375.6" font-family="Helvetica,Arial,sans-serif" font-size="14.00" fill="#000000">Home Team</text>
</g>
<!-- home_team&#45;&gt;teams -->
<g id="edge21" class="edge">
<title>home_team-&gt;teams</title>
<path fill="none" stroke="#000000" d="M753.0867,-367.2655C790.4778,-350.5804 856.305,-321.2063 894.4288,-304.1943"/>
<text text-anchor="middle" x="845.8883" y="-331.2" font-family="Helvetica,Arial,sans-serif" font-size="14.00" fill="#000000">1</text>
</g>
<!-- home_team&#45;&gt;games -->
<g id="edge20" class="edge">
<title>home_team-&gt;games</title>
<path fill="none" stroke="#000000" d="M718.2153,-362.7589C709.1952,-341.0176 692.0362,-302.6777 671.997,-273 658.9225,-253.637 640.9688,-233.9712 627.5715,-220.2961"/>
<text text-anchor="middle" x="695.8883" y="-286.8" font-family="Helvetica,Arial,sans-serif" font-size="14.00" fill="#000000">n</text>
</g>
<!-- visiting_team -->
<g id="node12" class="node">
<title>visiting_team</title>
<polygon fill="#d3d3d3" stroke="#000000" points="931.997,-397.8 833.8728,-379.8 931.997,-361.8 1030.1212,-379.8 931.997,-397.8"/>
<text text-anchor="middle" x="931.997" y="-375.6" font-family="Helvetica,Arial,sans-serif" font-size="14.00" fill="#000000">Visiting Team</text>
</g>
<!-- visiting_team&#45;&gt;teams -->
<g id="edge23" class="edge">
<title>visiting_team-&gt;teams</title>
<path fill="none" stroke="#000000" d="M930.3781,-361.83C928.9992,-346.525 927.0269,-324.6322 925.6409,-309.2481"/>
<text text-anchor="middle" x="931.8883" y="-331.2" font-family="Helvetica,Arial,sans-serif" font-size="14.00" fill="#000000">1</text>
</g>
<!-- visiting_team&#45;&gt;games -->
<g id="edge22" class="edge">
<title>visiting_team-&gt;games</title>
<path fill="none" stroke="#000000" d="M907.188,-366.1589C848.9849,-334.1562 703.7778,-254.3148 639.9378,-219.2127"/>
<text text-anchor="middle" x="805.8883" y="-286.8" font-family="Helvetica,Arial,sans-serif" font-size="14.00" fill="#000000">n</text>
</g>
<!-- personnel_id -->
<g id="node14" class="node">
<title>personnel_id</title>
<ellipse fill="#d3d3d3" stroke="#000000" cx="179.997" cy="-452.8" rx="66.6864" ry="18"/>
<text text-anchor="start" x="139.5447" y="-449.6" font-family="Helvetica,Arial,sans-serif" text-decoration="underline" font-size="14.00" fill="#000000">Personnel ID</text>
</g>
<!-- personnel_id&#45;&gt;personnel -->
<g id="edge1" class="edge">
<title>personnel_id-&gt;personnel</title>
<path fill="none" stroke="#000000" d="M227.9305,-440.1677C281.5071,-426.0482 367.2817,-403.4434 417.2693,-390.2697"/>
</g>
<!-- first_name -->
<g id="node15" class="node">
<title>first_name</title>
<ellipse fill="#d3d3d3" stroke="#000000" cx="322.997" cy="-452.8" rx="58.4822" ry="18"/>
<text text-anchor="middle" x="322.997" y="-448.6" font-family="Helvetica,Arial,sans-serif" font-size="14.00" fill="#000000">First Name</text>
</g>
<!-- first_name&#45;&gt;personnel -->
<g id="edge2" class="edge">
<title>first_name-&gt;personnel</title>
<path fill="none" stroke="#000000" d="M351.7433,-437.1397C372.8144,-425.6607 401.4766,-410.0462 423.5706,-398.0099"/>
</g>
<!-- last_name -->
<g id="node16" class="node">
<title>last_name</title>
<ellipse fill="#d3d3d3" stroke="#000000" cx="456.997" cy="-452.8" rx="57.9411" ry="18"/>
<text text-anchor="middle" x="456.997" y="-448.6" font-family="Helvetica,Arial,sans-serif" font-size="14.00" fill="#000000">Last Name</text>
</g>
<!-- last_name&#45;&gt;personnel -->
<g id="edge3" class="edge">
<title>last_name-&gt;personnel</title>
<path fill="none" stroke="#000000" d="M456.997,-434.7551C456.997,-423.5241 456.997,-409.1298 456.997,-397.8904"/>
</g>
<!-- date_of_birth -->
<g id="node17" class="node">
<title>date_of_birth</title>
<ellipse fill="#d3d3d3" stroke="#000000" cx="596.997" cy="-452.8" rx="64.8951" ry="18"/>
<text text-anchor="middle" x="596.997" y="-448.6" font-family="Helvetica,Arial,sans-serif" font-size="14.00" fill="#000000">Date of Birth</text>
</g>
<!-- date_of_birth&#45;&gt;personnel -->
<g id="edge4" class="edge">
<title>date_of_birth-&gt;personnel</title>
<path fill="none" stroke="#000000" d="M566.2734,-436.7798C544.2189,-425.28 514.4737,-409.77 491.5855,-397.8354"/>
</g>
<!-- place_of_birth -->
<g id="node18" class="node">
<title>place_of_birth</title>
<ellipse fill="#d3d3d3" stroke="#000000" cx="747.997" cy="-452.8" rx="68.4076" ry="18"/>
<text text-anchor="middle" x="747.997" y="-448.6" font-family="Helvetica,Arial,sans-serif" font-size="14.00" fill="#000000">Place of Birth</text>
</g>
<!-- place_of_birth&#45;&gt;personnel -->
<g id="edge5" class="edge">
<title>place_of_birth-&gt;personnel</title>
<path fill="none" stroke="#000000" d="M698.3029,-440.3338C641.325,-426.0404 549.0615,-402.8952 496.6704,-389.7525"/>
</g>
<!-- batting_orientation -->
<g id="node19" class="node">
<title>batting_orientation</title>
<ellipse fill="#d3d3d3" stroke="#000000" cx="90.997" cy="-379.8" rx="90.994" ry="18"/>
<text text-anchor="middle" x="90.997" y="-375.6" font-family="Helvetica,Arial,sans-serif" font-size="14.00" fill="#000000">Batting Orientation</text>
</g>
<!-- batting_orientation&#45;&gt;players -->
<g id="edge6" class="edge">
<title>batting_orientation-&gt;players</title>
<path fill="none" stroke="#000000" d="M125.7941,-363.0974C160.0205,-346.6687 211.796,-321.8165 244.7434,-306.0017"/>
</g>
<!-- batting_average -->
<g id="node20" class="node">
<title>batting_average</title>
<ellipse fill="#d3d3d3" stroke="#000000" cx="279.997" cy="-379.8" rx="79.965" ry="18"/>
<text text-anchor="middle" x="279.997" y="-375.6" font-family="Helvetica,Arial,sans-serif" font-size="14.00" fill="#000000">Batting Average</text>
</g>
<!-- batting_average&#45;&gt;players -->
<g id="edge7" class="edge">
<title>batting_average-&gt;players</title>
<path fill="none" stroke="#000000" d="M279.1682,-361.4006C278.4771,-346.0587 277.498,-324.322 276.811,-309.072"/>
</g>
<!-- era -->
<g id="node33" class="node">
<title>era</title>
<ellipse fill="#d3d3d3" stroke="#000000" cx="584.997" cy="-379.8" rx="30.777" ry="18"/>
<text text-anchor="middle" x="584.997" y="-375.6" font-family="Helvetica,Arial,sans-serif" font-size="14.00" fill="#000000">ERA</text>
</g>
<!-- era&#45;&gt;pitchers -->
<g id="edge19" class="edge">
<title>era-&gt;pitchers</title>
<path fill="none" stroke="#000000" d="M602.0971,-364.707C607.9284,-358.731 613.9827,-351.46 617.997,-343.8 623.5823,-333.1423 626.5823,-319.9423 628.186,-309.4067"/>
</g>
</g>
</svg>