<?xml version="1.0" encoding="UTF-8" standalone="no"?>
<!DOCTYPE svg PUBLIC "-//W3C//DTD SVG 1.1//EN" "http://www.w3.org/Graphics/SVG/1.1/DTD/svg11.dtd">
<!-- Generated by graphviz version 2.40.1 (20161225.0304)
 -->
<!-- Title: G Pages: 1 -->
<svg width="206pt" height="404pt" viewBox="0.00 0.00 206.00 404.00" xmlns="http://www.w3.org/2000/svg" xmlns:xlink="http://www.w3.org/1999/xlink">
<g id="graph0" class="graph" transform="scale(1 1) rotate(0) translate(4 400)">
<title>G</title>
<polygon fill="#ffffff" stroke="transparent" points="-4,4 -4,-400 202,-400 202,4 -4,4"/>
<!-- root -->
<g id="node1" class="node">
<title>root</title>
<polygon fill="none" stroke="#000000" points="162,-396 108,-396 108,-360 162,-360 162,-396"/>
<text text-anchor="middle" x="135" y="-373.8" font-family="Times,serif" font-size="14.00" fill="#000000">{}</text>
</g>
<!-- k1 -->
<g id="node2" class="node">
<title>k1</title>
<polygon fill="none" stroke="#000000" points="162,-324 108,-324 108,-288 162,-288 162,-324"/>
<text text-anchor="middle" x="135" y="-301.8" font-family="Times,serif" font-size="14.00" fill="#000000">k:5</text>
</g>
<!-- root&#45;&gt;k1 -->
<g id="edge1" class="edge">
<title>root-&gt;k1</title>
<path fill="none" stroke="#000000" d="M135,-359.8314C135,-349 135,-335.2876 135,-324.4133"/>
</g>
<!-- e1 -->
<g id="node3" class="node">
<title>e1</title>
<polygon fill="none" stroke="#000000" points="126,-252 72,-252 72,-216 126,-216 126,-252"/>
<text text-anchor="middle" x="99" y="-229.8" font-family="Times,serif" font-size="14.00" fill="#000000">e:4</text>
</g>
<!-- k1&#45;&gt;e1 -->
<g id="edge2" class="edge">
<title>k1-&gt;e1</title>
<path fill="none" stroke="#000000" d="M125.9157,-287.8314C120.5,-277 113.6438,-263.2876 108.2066,-252.4133"/>
</g>
<!-- m1 -->
<g id="node4" class="node">
<title>m1</title>
<polygon fill="none" stroke="#000000" points="198,-252 144,-252 144,-216 198,-216 198,-252"/>
<text text-anchor="middle" x="171" y="-229.8" font-family="Times,serif" font-size="14.00" fill="#000000">m:1</text>
</g>
<!-- k1&#45;&gt;m1 -->
<g id="edge3" class="edge">
<title>k1-&gt;m1</title>
<path fill="none" stroke="#000000" d="M144.0843,-287.8314C149.5,-277 156.3562,-263.2876 161.7934,-252.4133"/>
</g>
<!-- m2 -->
<g id="node5" class="node">
<title>m2</title>
<polygon fill="none" stroke="#000000" points="54,-180 0,-180 0,-144 54,-144 54,-180"/>
<text text-anchor="middle" x="27" y="-157.8" font-family="Times,serif" font-size="14.00" fill="#000000">m:2</text>
</g>
<!-- e1&#45;&gt;m2 -->
<g id="edge4" class="edge">
<title>e1-&gt;m2</title>
<path fill="none" stroke="#000000" d="M80.8314,-215.8314C70,-205 56.2876,-191.2876 45.4133,-180.4133"/>
</g>
<!-- o2 -->
<g id="node8" class="node">
<title>o2</title>
<polygon fill="none" stroke="#000000" points="126,-180 72,-180 72,-144 126,-144 126,-180"/>
<text text-anchor="middle" x="99" y="-157.8" font-family="Times,serif" font-size="14.00" fill="#000000">o:2</text>
</g>
<!-- e1&#45;&gt;o2 -->
<g id="edge5" class="edge">
<title>e1-&gt;o2</title>
<path fill="none" stroke="#000000" d="M99,-215.8314C99,-205 99,-191.2876 99,-180.4133"/>
</g>
<!-- y3 -->
<g id="node10" class="node">
<title>y3</title>
<polygon fill="none" stroke="#000000" points="198,-180 144,-180 144,-144 198,-144 198,-180"/>
<text text-anchor="middle" x="171" y="-157.8" font-family="Times,serif" font-size="14.00" fill="#000000">y:1</text>
</g>
<!-- m1&#45;&gt;y3 -->
<g id="edge9" class="edge">
<title>m1-&gt;y3</title>
<path fill="none" stroke="#000000" d="M171,-215.8314C171,-205 171,-191.2876 171,-180.4133"/>
</g>
<!-- m2&#45;&gt;m1 -->
<g id="edge13" class="edge">
<title>m2-&gt;m1</title>
<path fill="none" stroke="#000000" d="M54.4534,-175.7267C77.2438,-187.1219 109.8433,-203.4216 134.7724,-215.8862"/>
<polygon fill="#000000" stroke="#000000" points="133.4052,-219.1157 143.9147,-220.4574 136.5357,-212.8547 133.4052,-219.1157"/>
</g>
<!-- o1 -->
<g id="node7" class="node">
<title>o1</title>
<polygon fill="none" stroke="#000000" points="54,-108 0,-108 0,-72 54,-72 54,-108"/>
<text text-anchor="middle" x="27" y="-85.8" font-family="Times,serif" font-size="14.00" fill="#000000">o:1</text>
</g>
<!-- m2&#45;&gt;o1 -->
<g id="edge6" class="edge">
<title>m2-&gt;o1</title>
<path fill="none" stroke="#000000" d="M27,-143.8314C27,-133 27,-119.2876 27,-108.4133"/>
</g>
<!-- y1 -->
<g id="node6" class="node">
<title>y1</title>
<polygon fill="none" stroke="#000000" points="54,-36 0,-36 0,0 54,0 54,-36"/>
<text text-anchor="middle" x="27" y="-13.8" font-family="Times,serif" font-size="14.00" fill="#000000">y:1</text>
</g>
<!-- o1&#45;&gt;y1 -->
<g id="edge7" class="edge">
<title>o1-&gt;y1</title>
<path fill="none" stroke="#000000" d="M27,-71.8314C27,-61 27,-47.2876 27,-36.4133"/>
</g>
<!-- o2&#45;&gt;o1 -->
<g id="edge10" class="edge">
<title>o2-&gt;o1</title>
<path fill="none" stroke="#000000" d="M80.8314,-143.8314C72.2848,-135.2848 61.9443,-124.9443 52.6198,-115.6198"/>
<polygon fill="#000000" stroke="#000000" points="54.9592,-113.0095 45.4133,-108.4133 50.0095,-117.9592 54.9592,-113.0095"/>
</g>
<!-- y2 -->
<g id="node9" class="node">
<title>y2</title>
<polygon fill="none" stroke="#000000" points="126,-108 72,-108 72,-72 126,-72 126,-108"/>
<text text-anchor="middle" x="99" y="-85.8" font-family="Times,serif" font-size="14.00" fill="#000000">y:1</text>
</g>
<!-- o2&#45;&gt;y2 -->
<g id="edge8" class="edge">
<title>o2-&gt;y2</title>
<path fill="none" stroke="#000000" d="M99,-143.8314C99,-133 99,-119.2876 99,-108.4133"/>
</g>
<!-- y3&#45;&gt;y1 -->
<g id="edge12" class="edge">
<title>y3-&gt;y1</title>
<path fill="none" stroke="#000000" d="M167.7145,-143.7141C163.3218,-123.9147 153.8015,-92.4334 135,-72 115.8731,-51.2129 86.959,-37.3477 63.8604,-28.8769"/>
<polygon fill="#000000" stroke="#000000" points="64.9573,-25.5528 54.3625,-25.5723 62.6571,-32.1641 64.9573,-25.5528"/>
</g>
<!-- y3&#45;&gt;y2 -->
<g id="edge11" class="edge">
<title>y3-&gt;y2</title>
<path fill="none" stroke="#000000" d="M152.8314,-143.8314C144.2848,-135.2848 133.9443,-124.9443 124.6198,-115.6198"/>
<polygon fill="#000000" stroke="#000000" points="126.9592,-113.0095 117.4133,-108.4133 122.0095,-117.9592 126.9592,-113.0095"/>
</g>
</g>
</svg>