<?xml version="1.0" encoding="UTF-8" standalone="no"?>
<!DOCTYPE svg PUBLIC "-//W3C//DTD SVG 1.1//EN" "http://www.w3.org/Graphics/SVG/1.1/DTD/svg11.dtd">
<!-- Generated by graphviz version 2.40.1 (20161225.0304)
 -->
<!-- Title: ER Pages: 1 -->
<svg width="1528pt" height="605pt" viewBox="0.00 0.00 1528.34 605.00"
    xmlns="http://www.w3.org/2000/svg" xmlns:xlink="http://www.w3.org/1999/xlink">
    <g id="graph0" class="graph" transform="scale(1 1) rotate(0) translate(4 601)">
        <title>ER</title>
        <text text-anchor="middle" x="760.1708" y="-8.2" font-family="Helvetica,Arial,sans-serif"
            font-size="14.00" fill="#000000">Medical Database ERD</text>
        <!-- patients -->
        <g id="node1" class="node">
            <title>patients</title>
            <polygon fill="#d3d3d3" stroke="#000000"
                points="1297.5269,-149.6 1231.3798,-149.6 1231.3798,-113.6 1297.5269,-113.6 1297.5269,-149.6" />
            <text text-anchor="middle" x="1264.4534" y="-127.4"
                font-family="Helvetica,Arial,sans-serif" font-size="14.00" fill="#000000">Patients</text>
        </g>
        <!-- obtain1 -->
        <g id="node12" class="node">
            <title>obtain1</title>
            <polygon fill="#d3d3d3" stroke="#000000"
                points="983.4534,-60.8 930.8498,-42.8 983.4534,-24.8 1036.0569,-42.8 983.4534,-60.8" />
            <text text-anchor="middle" x="983.4534" y="-38.6"
                font-family="Helvetica,Arial,sans-serif" font-size="14.00" fill="#000000">obtain</text>
        </g>
        <!-- patients&#45;&gt;obtain1 -->
        <g id="edge31" class="edge">
            <title>patients-&gt;obtain1</title>
            <path fill="none" stroke="#000000"
                d="M1231.1155,-121.0648C1174.9993,-103.3312 1062.7309,-67.8528 1010.8723,-51.4648" />
            <text text-anchor="middle" x="1153.3447" y="-83"
                font-family="Helvetica,Arial,sans-serif" font-size="14.00" fill="#000000">n</text>
        </g>
        <!-- doctors -->
        <g id="node2" class="node">
            <title>doctors</title>
            <polygon fill="#d3d3d3" stroke="#000000"
                points="1184.6767,-327.2 1120.23,-327.2 1120.23,-291.2 1184.6767,-291.2 1184.6767,-327.2" />
            <text text-anchor="middle" x="1152.4534" y="-305"
                font-family="Helvetica,Arial,sans-serif" font-size="14.00" fill="#000000">Doctors</text>
        </g>
        <!-- Prescrible -->
        <g id="node8" class="node">
            <title>Prescrible</title>
            <polygon fill="#d3d3d3" stroke="#000000"
                points="905.4534,-238.4 829.3482,-220.4 905.4534,-202.4 981.5585,-220.4 905.4534,-238.4" />
            <text text-anchor="middle" x="905.4534" y="-216.2"
                font-family="Helvetica,Arial,sans-serif" font-size="14.00" fill="#000000">Prescrible</text>
        </g>
        <!-- doctors&#45;&gt;Prescrible -->
        <g id="edge27" class="edge">
            <title>doctors-&gt;Prescrible</title>
            <path fill="none" stroke="#000000"
                d="M1120.1624,-297.591C1072.1712,-280.3374 982.6629,-248.1579 935.8139,-231.315" />
            <text text-anchor="middle" x="1055.3447" y="-260.6"
                font-family="Helvetica,Arial,sans-serif" font-size="14.00" fill="#000000">1</text>
        </g>
        <!-- heal -->
        <g id="node13" class="node">
            <title>heal</title>
            <polygon fill="#d3d3d3" stroke="#000000"
                points="1399.4534,-238.4 1358.1247,-220.4 1399.4534,-202.4 1440.782,-220.4 1399.4534,-238.4" />
            <text text-anchor="middle" x="1399.4534" y="-216.2"
                font-family="Helvetica,Arial,sans-serif" font-size="14.00" fill="#000000">heal</text>
        </g>
        <!-- doctors&#45;&gt;heal -->
        <g id="edge21" class="edge">
            <title>doctors-&gt;heal</title>
            <path fill="none" stroke="#000000"
                d="M1184.7443,-297.591C1235.4816,-279.3502 1332.6232,-244.4264 1376.7002,-228.5801" />
            <text text-anchor="middle" x="1303.2837" y="-260.6"
                font-family="Helvetica,Arial,sans-serif" font-size="14.00" fill="#000000">m</text>
        </g>
        <!-- pharmaceutical_companies -->
        <g id="node3" class="node">
            <title>pharmaceutical_companies</title>
            <polygon fill="#d3d3d3" stroke="#000000"
                points="642.088,-524 454.8187,-524 454.8187,-488 642.088,-488 642.088,-524" />
            <text text-anchor="middle" x="548.4534" y="-501.8"
                font-family="Helvetica,Arial,sans-serif" font-size="14.00" fill="#000000">Pharmaceutical
                Companies</text>
        </g>
        <!-- contracts -->
        <g id="node7" class="node">
            <title>contracts</title>
            <polygon fill="#d3d3d3" stroke="#000000"
                points="354.4534,-435.2 280.38,-417.2 354.4534,-399.2 428.5267,-417.2 354.4534,-435.2" />
            <text text-anchor="middle" x="354.4534" y="-413"
                font-family="Helvetica,Arial,sans-serif" font-size="14.00" fill="#000000">Contracts</text>
        </g>
        <!-- pharmaceutical_companies&#45;&gt;contracts -->
        <g id="edge33" class="edge">
            <title>pharmaceutical_companies-&gt;contracts</title>
            <path fill="none" stroke="#000000"
                d="M508.7264,-487.8157C470.2601,-470.2084 413.0724,-444.0318 380.208,-428.9887" />
            <text text-anchor="middle" x="475.2837" y="-457.4"
                font-family="Helvetica,Arial,sans-serif" font-size="14.00" fill="#000000">m</text>
        </g>
        <!-- make -->
        <g id="node9" class="node">
            <title>make</title>
            <polygon fill="#d3d3d3" stroke="#000000"
                points="548.4534,-381.2 499.4629,-363.2 548.4534,-345.2 597.4438,-363.2 548.4534,-381.2" />
            <text text-anchor="middle" x="548.4534" y="-359"
                font-family="Helvetica,Arial,sans-serif" font-size="14.00" fill="#000000">make</text>
        </g>
        <!-- pharmaceutical_companies&#45;&gt;make -->
        <g id="edge23" class="edge">
            <title>pharmaceutical_companies-&gt;make</title>
            <path fill="none" stroke="#000000"
                d="M548.4534,-487.9143C548.4534,-460.5962 548.4534,-409.0864 548.4534,-381.5899" />
            <text text-anchor="middle" x="552.3447" y="-457.4"
                font-family="Helvetica,Arial,sans-serif" font-size="14.00" fill="#000000">1</text>
        </g>
        <!-- drugs -->
        <g id="node4" class="node">
            <title>drugs</title>
            <polygon fill="#d3d3d3" stroke="#000000"
                points="579.4534,-149.6 525.4534,-149.6 525.4534,-113.6 579.4534,-113.6 579.4534,-149.6" />
            <text text-anchor="middle" x="552.4534" y="-127.4"
                font-family="Helvetica,Arial,sans-serif" font-size="14.00" fill="#000000">Drugs</text>
        </g>
        <!-- obtain -->
        <g id="node11" class="node">
            <title>obtain</title>
            <polygon fill="#d3d3d3" stroke="#000000"
                points="799.4534,-60.8 754.0279,-42.8 799.4534,-24.8 844.8788,-42.8 799.4534,-60.8" />
            <text text-anchor="middle" x="799.4534" y="-38.6"
                font-family="Helvetica,Arial,sans-serif" font-size="14.00" fill="#000000">have</text>
        </g>
        <!-- drugs&#45;&gt;obtain -->
        <g id="edge32" class="edge">
            <title>drugs-&gt;obtain</title>
            <path fill="none" stroke="#000000"
                d="M579.8304,-121.7576C628.5649,-104.2368 729.5612,-67.9272 775.6228,-51.3674" />
            <text text-anchor="middle" x="702.3447" y="-83" font-family="Helvetica,Arial,sans-serif"
                font-size="14.00" fill="#000000">n</text>
        </g>
        <!-- pharmacies -->
        <g id="node5" class="node">
            <title>pharmacies</title>
            <polygon fill="#d3d3d3" stroke="#000000"
                points="399.3482,-327.2 309.5585,-327.2 309.5585,-291.2 399.3482,-291.2 399.3482,-327.2" />
            <text text-anchor="middle" x="354.4534" y="-305"
                font-family="Helvetica,Arial,sans-serif" font-size="14.00" fill="#000000">Pharmacies</text>
        </g>
        <!-- sell -->
        <g id="node10" class="node">
            <title>sell</title>
            <polygon fill="#d3d3d3" stroke="#000000"
                points="391.4534,-238.4 355.2744,-220.4 391.4534,-202.4 427.6323,-220.4 391.4534,-238.4" />
            <text text-anchor="middle" x="391.4534" y="-216.2"
                font-family="Helvetica,Arial,sans-serif" font-size="14.00" fill="#000000">sell</text>
        </g>
        <!-- pharmacies&#45;&gt;sell -->
        <g id="edge25" class="edge">
            <title>pharmacies-&gt;sell</title>
            <path fill="none" stroke="#000000"
                d="M362.1198,-290.8006C368.9356,-274.4427 378.7805,-250.8149 385.1486,-235.5313" />
            <text text-anchor="middle" x="382.2837" y="-260.6"
                font-family="Helvetica,Arial,sans-serif" font-size="14.00" fill="#000000">m</text>
        </g>
        <!-- prescriptions -->
        <g id="node6" class="node">
            <title>prescriptions</title>
            <polygon fill="#d3d3d3" stroke="#000000"
                points="953.8454,-149.6 857.0613,-149.6 857.0613,-113.6 953.8454,-113.6 953.8454,-149.6" />
            <text text-anchor="middle" x="905.4534" y="-127.4"
                font-family="Helvetica,Arial,sans-serif" font-size="14.00" fill="#000000">
                Prescriptions</text>
        </g>
        <!-- prescriptions&#45;&gt;obtain -->
        <g id="edge29" class="edge">
            <title>prescriptions-&gt;obtain</title>
            <path fill="none" stroke="#000000"
                d="M883.7469,-113.4157C863.032,-96.0621 832.3807,-70.3844 814.3099,-55.2459" />
            <text text-anchor="middle" x="868.2837" y="-83" font-family="Helvetica,Arial,sans-serif"
                font-size="14.00" fill="#000000">m</text>
        </g>
        <!-- prescriptions&#45;&gt;obtain1 -->
        <g id="edge30" class="edge">
            <title>prescriptions-&gt;obtain1</title>
            <path fill="none" stroke="#000000"
                d="M921.615,-113.2006C936.3404,-96.4363 957.7728,-72.0364 971.1492,-56.8079" />
            <text text-anchor="middle" x="957.2837" y="-83" font-family="Helvetica,Arial,sans-serif"
                font-size="14.00" fill="#000000">m</text>
        </g>
        <!-- contracts&#45;&gt;pharmacies -->
        <g id="edge34" class="edge">
            <title>contracts-&gt;pharmacies</title>
            <path fill="none" stroke="#000000"
                d="M354.4534,-398.8793C354.4534,-378.899 354.4534,-347.1231 354.4534,-327.2502" />
            <text text-anchor="middle" x="358.3447" y="-359"
                font-family="Helvetica,Arial,sans-serif" font-size="14.00" fill="#000000">n</text>
        </g>
        <!-- Prescrible&#45;&gt;prescriptions -->
        <g id="edge28" class="edge">
            <title>Prescrible-&gt;prescriptions</title>
            <path fill="none" stroke="#000000"
                d="M905.4534,-202.0006C905.4534,-186.6587 905.4534,-164.922 905.4534,-149.672" />
            <text text-anchor="middle" x="909.3447" y="-171.8"
                font-family="Helvetica,Arial,sans-serif" font-size="14.00" fill="#000000">n</text>
        </g>
        <!-- make&#45;&gt;drugs -->
        <g id="edge24" class="edge">
            <title>make-&gt;drugs</title>
            <path fill="none" stroke="#000000"
                d="M539.1999,-348.4785C522.5378,-320.0734 490.6316,-255.7918 506.4534,-202.4 512.3256,-182.5837 525.6837,-163.1184 536.5002,-149.6289" />
            <text text-anchor="middle" x="511.3447" y="-260.6"
                font-family="Helvetica,Arial,sans-serif" font-size="14.00" fill="#000000">n</text>
        </g>
        <!-- sell&#45;&gt;drugs -->
        <g id="edge26" class="edge">
            <title>sell-&gt;drugs</title>
            <path fill="none" stroke="#000000"
                d="M405.3284,-209.0791C419.7866,-197.6383 443.3995,-179.9348 465.6708,-167.6 484.7913,-157.0103 507.6723,-147.6431 525.1383,-141.1201" />
            <text text-anchor="middle" x="470.3447" y="-171.8"
                font-family="Helvetica,Arial,sans-serif" font-size="14.00" fill="#000000">n</text>
        </g>
        <!-- heal&#45;&gt;patients -->
        <g id="edge22" class="edge">
            <title>heal-&gt;patients</title>
            <path fill="none" stroke="#000000"
                d="M1382.8997,-209.5114C1360.2283,-194.5987 1319.225,-167.6276 1291.915,-149.6636" />
            <text text-anchor="middle" x="1347.3447" y="-171.8"
                font-family="Helvetica,Arial,sans-serif" font-size="14.00" fill="#000000">n</text>
        </g>
        <!-- patients_ssn -->
        <g id="node14" class="node">
            <title>patients_ssn</title>
            <ellipse fill="#d3d3d3" stroke="#000000" cx="1489.4534" cy="-220.4" rx="30.777" ry="18" />
            <text text-anchor="start" x="1475.0635" y="-217.2"
                font-family="Helvetica,Arial,sans-serif" text-decoration="underline"
                font-size="14.00" fill="#000000">SSN</text>
        </g>
        <!-- patients_ssn&#45;&gt;patients -->
        <g id="edge1" class="edge">
            <title>patients_ssn-&gt;patients</title>
            <path fill="none" stroke="#000000"
                d="M1465.0116,-209.134C1459.8947,-206.8508 1454.5158,-204.5057 1449.4534,-202.4 1401.2138,-182.3348 1345.0756,-161.1503 1307.403,-147.2417" />
            <polygon fill="#000000" stroke="#000000"
                points="1308.3582,-143.8638 1297.7648,-143.6933 1305.9398,-150.4327 1308.3582,-143.8638" />
        </g>
        <!-- patients_name -->
        <g id="node15" class="node">
            <title>patients_name</title>
            <ellipse fill="#d3d3d3" stroke="#000000" cx="1117.4534" cy="-220.4" rx="36.5767" ry="18" />
            <text text-anchor="middle" x="1117.4534" y="-216.2"
                font-family="Helvetica,Arial,sans-serif" font-size="14.00" fill="#000000">Name</text>
        </g>
        <!-- patients_name&#45;&gt;patients -->
        <g id="edge2" class="edge">
            <title>patients_name-&gt;patients</title>
            <path fill="none" stroke="#000000"
                d="M1140.7459,-206.3294C1163.512,-192.5768 1198.5881,-171.388 1225.5843,-155.0801" />
            <polygon fill="#000000" stroke="#000000"
                points="1227.6505,-157.921 1234.4003,-149.7545 1224.031,-151.9294 1227.6505,-157.921" />
        </g>
        <!-- patients_address -->
        <g id="node16" class="node">
            <title>patients_address</title>
            <ellipse fill="#d3d3d3" stroke="#000000" cx="1218.4534" cy="-220.4" rx="46.4068" ry="18" />
            <text text-anchor="middle" x="1218.4534" y="-216.2"
                font-family="Helvetica,Arial,sans-serif" font-size="14.00" fill="#000000">Address</text>
        </g>
        <!-- patients_address&#45;&gt;patients -->
        <g id="edge3" class="edge">
            <title>patients_address-&gt;patients</title>
            <path fill="none" stroke="#000000"
                d="M1227.7621,-202.43C1234.2039,-189.9946 1242.8984,-173.2104 1250.2069,-159.1018" />
            <polygon fill="#000000" stroke="#000000"
                points="1253.5086,-160.3373 1255.0005,-149.8481 1247.293,-157.1175 1253.5086,-160.3373" />
        </g>
        <!-- patients_age -->
        <g id="node17" class="node">
            <title>patients_age</title>
            <ellipse fill="#d3d3d3" stroke="#000000" cx="1311.4534" cy="-220.4" rx="28.4283" ry="18" />
            <text text-anchor="middle" x="1311.4534" y="-216.2"
                font-family="Helvetica,Arial,sans-serif" font-size="14.00" fill="#000000">Age</text>
        </g>
        <!-- patients_age&#45;&gt;patients -->
        <g id="edge4" class="edge">
            <title>patients_age-&gt;patients</title>
            <path fill="none" stroke="#000000"
                d="M1302.3913,-203.2785C1295.7392,-190.7102 1286.5671,-173.3808 1278.9079,-158.9098" />
            <polygon fill="#000000" stroke="#000000"
                points="1281.9062,-157.0928 1274.1348,-149.8917 1275.7194,-160.3674 1281.9062,-157.0928" />
        </g>
        <!-- doctors_ssn -->
        <g id="node18" class="node">
            <title>doctors_ssn</title>
            <ellipse fill="#d3d3d3" stroke="#000000" cx="1382.4534" cy="-417.2" rx="30.777" ry="18" />
            <text text-anchor="start" x="1368.0635" y="-414"
                font-family="Helvetica,Arial,sans-serif" text-decoration="underline"
                font-size="14.00" fill="#000000">SSN</text>
        </g>
        <!-- doctors_ssn&#45;&gt;doctors -->
        <g id="edge5" class="edge">
            <title>doctors_ssn-&gt;doctors</title>
            <path fill="none" stroke="#000000"
                d="M1358.274,-405.8462C1319.2403,-387.5173 1241.8797,-351.1915 1193.9164,-328.6696" />
            <polygon fill="#000000" stroke="#000000"
                points="1195.2752,-325.441 1184.7357,-324.3587 1192.2999,-331.7773 1195.2752,-325.441" />
        </g>
        <!-- doctors_name -->
        <g id="node19" class="node">
            <title>doctors_name</title>
            <ellipse fill="#d3d3d3" stroke="#000000" cx="964.4534" cy="-417.2" rx="36.5767" ry="18" />
            <text text-anchor="middle" x="964.4534" y="-413"
                font-family="Helvetica,Arial,sans-serif" font-size="14.00" fill="#000000">Name</text>
        </g>
        <!-- doctors_name&#45;&gt;doctors -->
        <g id="edge6" class="edge">
            <title>doctors_name-&gt;doctors</title>
            <path fill="none" stroke="#000000"
                d="M988.6462,-403.302C1019.862,-385.3695 1074.6072,-353.9201 1112.1532,-332.3511" />
            <polygon fill="#000000" stroke="#000000"
                points="1113.9031,-335.3824 1120.8307,-327.3662 1110.4162,-329.3126 1113.9031,-335.3824" />
        </g>
        <!-- doctors_specialty -->
        <g id="node20" class="node">
            <title>doctors_specialty</title>
            <ellipse fill="#d3d3d3" stroke="#000000" cx="1069.4534" cy="-417.2" rx="50.4168" ry="18" />
            <text text-anchor="middle" x="1069.4534" y="-413"
                font-family="Helvetica,Arial,sans-serif" font-size="14.00" fill="#000000">Specialty</text>
        </g>
        <!-- doctors_specialty&#45;&gt;doctors -->
        <g id="edge7" class="edge">
            <title>doctors_specialty-&gt;doctors</title>
            <path fill="none" stroke="#000000"
                d="M1083.1591,-399.366C1096.5348,-381.9615 1117.0396,-355.2805 1132.2778,-335.4526" />
            <polygon fill="#000000" stroke="#000000"
                points="1135.1314,-337.4832 1138.4498,-327.4215 1129.5811,-333.2177 1135.1314,-337.4832" />
        </g>
        <!-- doctors_years_of_experience -->
        <g id="node21" class="node">
            <title>doctors_years_of_experience</title>
            <ellipse fill="#d3d3d3" stroke="#000000" cx="1235.4534" cy="-417.2" rx="97.9444" ry="18" />
            <text text-anchor="middle" x="1235.4534" y="-413"
                font-family="Helvetica,Arial,sans-serif" font-size="14.00" fill="#000000">Years of
                Experience</text>
        </g>
        <!-- doctors_years_of_experience&#45;&gt;doctors -->
        <g id="edge8" class="edge">
            <title>doctors_years_of_experience-&gt;doctors</title>
            <path fill="none" stroke="#000000"
                d="M1221.7476,-399.366C1208.3719,-381.9615 1187.8671,-355.2805 1172.6289,-335.4526" />
            <polygon fill="#000000" stroke="#000000"
                points="1175.3256,-333.2177 1166.4569,-327.4215 1169.7753,-337.4832 1175.3256,-333.2177" />
        </g>
        <!-- pharmaceutical_companies_name -->
        <g id="node22" class="node">
            <title>pharmaceutical_companies_name</title>
            <ellipse fill="#d3d3d3" stroke="#000000" cx="482.4534" cy="-579" rx="36.5767" ry="18" />
            <text text-anchor="middle" x="482.4534" y="-574.8"
                font-family="Helvetica,Arial,sans-serif" font-size="14.00" fill="#000000">Name</text>
        </g>
        <!-- pharmaceutical_companies_name&#45;&gt;pharmaceutical_companies -->
        <g id="edge9" class="edge">
            <title>pharmaceutical_companies_name-&gt;pharmaceutical_companies</title>
            <path fill="none" stroke="#000000"
                d="M497.4298,-562.4352C505.6734,-553.3173 516.0816,-541.8052 525.3442,-531.5601" />
            <polygon fill="#000000" stroke="#000000"
                points="528.0391,-533.7983 532.1493,-524.0332 522.8466,-529.1037 528.0391,-533.7983" />
        </g>
        <!-- pharmaceutical_companies_phone_number -->
        <g id="node23" class="node">
            <title>pharmaceutical_companies_phone_number</title>
            <ellipse fill="#d3d3d3" stroke="#000000" cx="613.4534" cy="-579" rx="75.9358" ry="18" />
            <text text-anchor="start" x="566.3868" y="-575.8"
                font-family="Helvetica,Arial,sans-serif" text-decoration="underline"
                font-size="14.00" fill="#000000">Phone Number</text>
        </g>
        <!-- pharmaceutical_companies_phone_number&#45;&gt;pharmaceutical_companies -->
        <g id="edge10" class="edge">
            <title>pharmaceutical_companies_phone_number-&gt;pharmaceutical_companies</title>
            <path fill="none" stroke="#000000"
                d="M597.7187,-561.3287C589.7733,-552.4055 579.9871,-541.4148 571.236,-531.5867" />
            <polygon fill="#000000" stroke="#000000"
                points="573.7587,-529.1566 564.4947,-524.0157 568.5308,-533.8116 573.7587,-529.1566" />
        </g>
        <!-- drugs_trade_name -->
        <g id="node24" class="node">
            <title>drugs_trade_name</title>
            <ellipse fill="#d3d3d3" stroke="#000000" cx="552.4534" cy="-220.4" rx="36.5767" ry="18" />
            <text text-anchor="start" x="533.7872" y="-217.2"
                font-family="Helvetica,Arial,sans-serif" text-decoration="underline"
                font-size="14.00" fill="#000000">Name</text>
        </g>
        <!-- drugs_trade_name&#45;&gt;drugs -->
        <g id="edge11" class="edge">
            <title>drugs_trade_name-&gt;drugs</title>
            <path fill="none" stroke="#000000"
                d="M552.4534,-202.0006C552.4534,-189.8949 552.4534,-173.8076 552.4534,-160.0674" />
            <polygon fill="#000000" stroke="#000000"
                points="555.9534,-159.672 552.4534,-149.672 548.9534,-159.6721 555.9534,-159.672" />
        </g>
        <!-- drugs_formula -->
        <g id="node25" class="node">
            <title>drugs_formula</title>
            <ellipse fill="#d3d3d3" stroke="#000000" cx="653.4534" cy="-220.4" rx="46.3836" ry="18" />
            <text text-anchor="middle" x="653.4534" y="-216.2"
                font-family="Helvetica,Arial,sans-serif" font-size="14.00" fill="#000000">Formula</text>
        </g>
        <!-- drugs_formula&#45;&gt;drugs -->
        <g id="edge12" class="edge">
            <title>drugs_formula-&gt;drugs</title>
            <path fill="none" stroke="#000000"
                d="M634.456,-203.6974C619.2926,-190.3656 597.8199,-171.4866 580.651,-156.3916" />
            <polygon fill="#000000" stroke="#000000"
                points="582.9247,-153.7302 573.1035,-149.7558 578.3026,-158.9873 582.9247,-153.7302" />
        </g>
        <!-- pharmacies_name -->
        <g id="node26" class="node">
            <title>pharmacies_name</title>
            <ellipse fill="#d3d3d3" stroke="#000000" cx="483.4534" cy="-417.2" rx="36.5767" ry="18" />
            <text text-anchor="middle" x="483.4534" y="-413"
                font-family="Helvetica,Arial,sans-serif" font-size="14.00" fill="#000000">Name</text>
        </g>
        <!-- pharmacies_name&#45;&gt;pharmacies -->
        <g id="edge13" class="edge">
            <title>pharmacies_name-&gt;pharmacies</title>
            <path fill="none" stroke="#000000"
                d="M464.6956,-401.4959C443.5093,-383.7585 408.7573,-354.6637 383.9349,-333.8822" />
            <polygon fill="#000000" stroke="#000000"
                points="386.1687,-331.1877 376.2543,-327.452 381.6752,-336.5551 386.1687,-331.1877" />
        </g>
        <!-- pharmacies_address -->
        <g id="node27" class="node">
            <title>pharmacies_address</title>
            <ellipse fill="#d3d3d3" stroke="#000000" cx="46.4534" cy="-417.2" rx="46.4068" ry="18" />
            <text text-anchor="middle" x="46.4534" y="-413" font-family="Helvetica,Arial,sans-serif"
                font-size="14.00" fill="#000000">Address</text>
        </g>
        <!-- pharmacies_address&#45;&gt;pharmacies -->
        <g id="edge14" class="edge">
            <title>pharmacies_address-&gt;pharmacies</title>
            <path fill="none" stroke="#000000"
                d="M79.5976,-404.5526C118.4531,-389.8357 184.8678,-365.0224 242.4534,-345.2 261.0333,-338.8043 281.4666,-332.1313 299.736,-326.2926" />
            <polygon fill="#000000" stroke="#000000"
                points="300.8857,-329.5998 309.3534,-323.2319 298.7628,-322.9294 300.8857,-329.5998" />
        </g>
        <!-- pharmacies_phone_number -->
        <g id="node28" class="node">
            <title>pharmacies_phone_number</title>
            <ellipse fill="#d3d3d3" stroke="#000000" cx="186.4534" cy="-417.2" rx="75.9358" ry="18" />
            <text text-anchor="start" x="139.3868" y="-414" font-family="Helvetica,Arial,sans-serif"
                text-decoration="underline" font-size="14.00" fill="#000000">Phone Number</text>
        </g>
        <!-- pharmacies_phone_number&#45;&gt;pharmacies -->
        <g id="edge15" class="edge">
            <title>pharmacies_phone_number-&gt;pharmacies</title>
            <path fill="none" stroke="#000000"
                d="M213.0735,-400.0871C241.3202,-381.9284 286.149,-353.11 317.7413,-332.8006" />
            <polygon fill="#000000" stroke="#000000"
                points="319.7571,-335.6656 326.2762,-327.3139 315.9718,-329.7774 319.7571,-335.6656" />
        </g>
        <!-- prescriptions_date -->
        <g id="node29" class="node">
            <title>prescriptions_date</title>
            <ellipse fill="#d3d3d3" stroke="#000000" cx="1031.4534" cy="-220.4" rx="31.3564" ry="18" />
            <text text-anchor="middle" x="1031.4534" y="-216.2"
                font-family="Helvetica,Arial,sans-serif" font-size="14.00" fill="#000000">Date</text>
        </g>
        <!-- prescriptions_date&#45;&gt;prescriptions -->
        <g id="edge16" class="edge">
            <title>prescriptions_date-&gt;prescriptions</title>
            <path fill="none" stroke="#000000"
                d="M1011.4883,-206.3294C992.2906,-192.7996 962.8804,-172.0724 939.8994,-155.8763" />
            <polygon fill="#000000" stroke="#000000"
                points="941.6315,-152.8151 931.4413,-149.9153 937.599,-158.5369 941.6315,-152.8151" />
        </g>
        <!-- prescriptions_quantity -->
        <g id="node30" class="node">
            <title>prescriptions_quantity</title>
            <ellipse fill="#d3d3d3" stroke="#000000" cx="764.4534" cy="-220.4" rx="46.9844" ry="18" />
            <text text-anchor="middle" x="764.4534" y="-216.2"
                font-family="Helvetica,Arial,sans-serif" font-size="14.00" fill="#000000">Quantity</text>
        </g>
        <!-- prescriptions_quantity&#45;&gt;prescriptions -->
        <g id="edge17" class="edge">
            <title>prescriptions_quantity-&gt;prescriptions</title>
            <path fill="none" stroke="#000000"
                d="M789.0137,-204.9322C810.8934,-191.1527 843.2292,-170.788 868.2766,-155.0135" />
            <polygon fill="#000000" stroke="#000000"
                points="870.2065,-157.9343 876.8031,-149.6436 866.4762,-152.0111 870.2065,-157.9343" />
        </g>
        <!-- contracts_start_date -->
        <g id="node31" class="node">
            <title>contracts_start_date</title>
            <ellipse fill="#d3d3d3" stroke="#000000" cx="382.4534" cy="-506" rx="54.5048" ry="18" />
            <text text-anchor="middle" x="382.4534" y="-501.8"
                font-family="Helvetica,Arial,sans-serif" font-size="14.00" fill="#000000">Start Date</text>
        </g>
        <!-- contracts_start_date&#45;&gt;contracts -->
        <g id="edge18" class="edge">
            <title>contracts_start_date-&gt;contracts</title>
            <path fill="none" stroke="#000000"
                d="M376.7871,-488.03C372.7752,-475.3064 367.3277,-458.03 362.8171,-443.7251" />
            <polygon fill="#000000" stroke="#000000"
                points="366.0775,-442.4263 359.7323,-433.9417 359.4015,-444.5314 366.0775,-442.4263" />
        </g>
        <!-- contracts_end_date -->
        <g id="node32" class="node">
            <title>contracts_end_date</title>
            <ellipse fill="#d3d3d3" stroke="#000000" cx="103.4534" cy="-506" rx="51.078" ry="18" />
            <text text-anchor="middle" x="103.4534" y="-501.8"
                font-family="Helvetica,Arial,sans-serif" font-size="14.00" fill="#000000">End Date</text>
        </g>
        <!-- contracts_end_date&#45;&gt;contracts -->
        <g id="edge19" class="edge">
            <title>contracts_end_date-&gt;contracts</title>
            <path fill="none" stroke="#000000"
                d="M139.6828,-493.1826C186.1688,-476.7365 266.5347,-448.3043 314.6738,-431.2734" />
            <polygon fill="#000000" stroke="#000000"
                points="315.8827,-434.5584 324.1427,-427.9234 313.548,-427.9592 315.8827,-434.5584" />
        </g>
        <!-- contracts_text -->
        <g id="node33" class="node">
            <title>contracts_text</title>
            <ellipse fill="#d3d3d3" stroke="#000000" cx="241.4534" cy="-506" rx="68.9737" ry="18" />
            <text text-anchor="middle" x="241.4534" y="-501.8"
                font-family="Helvetica,Arial,sans-serif" font-size="14.00" fill="#000000">Contract
                Text</text>
        </g>
        <!-- contracts_text&#45;&gt;contracts -->
        <g id="edge20" class="edge">
            <title>contracts_text-&gt;contracts</title>
            <path fill="none" stroke="#000000"
                d="M263.2409,-488.8785C281.984,-474.1494 309.0482,-452.8812 328.8274,-437.338" />
            <polygon fill="#000000" stroke="#000000"
                points="331.1125,-439.9936 336.8126,-431.0628 326.7873,-434.4897 331.1125,-439.9936" />
        </g>
    </g>
</svg>